<?xml version="1.0" encoding="UTF-8"?>
<svg width="700pt" height="700pt" version="1.1" viewBox="0 0 700 700" xmlns="http://www.w3.org/2000/svg">
 <g>
  <path d="m612.5 455h-192.5c-4.6562 0-9.1016-1.8555-12.391-5.1094l-57.609-57.645-57.609 57.609c-3.2891 3.2891-7.7344 5.1445-12.391 5.1445h-192.5c-9.6602 0-17.5-7.8398-17.5-17.5s7.8398-17.5 17.5-17.5h185.25l64.891-64.891c6.8242-6.8242 17.922-6.8242 24.746 0l64.855 64.891h185.25c9.6602 0 17.5 7.8398 17.5 17.5s-7.8398 17.5-17.5 17.5z"/>
  <path d="m498.4 385c-1.9961 0-3.9883-0.35156-5.9492-1.0508-9.1016-3.2891-13.824-13.301-10.5-22.398 5.3555-14.77 8.0508-30.414 8.0508-46.551 0-77.211-62.789-140-140-140s-140 62.789-140 140c0 16.137 2.6953 31.781 8.0508 46.551 3.2891 9.1016-1.4336 19.109-10.5 22.398-8.9961 3.3594-19.109-1.3633-22.398-10.5-6.7227-18.586-10.152-38.254-10.152-58.449 0-96.496 78.504-175 175-175s175 78.504 175 175c0 20.195-3.4297 39.863-10.148 58.449-2.5547 7.1406-9.3125 11.551-16.453 11.551z"/>
  <path d="m350 105c-9.6602 0-17.5-7.8398-17.5-17.5v-35c0-9.6602 7.8398-17.5 17.5-17.5s17.5 7.8398 17.5 17.5v35c0 9.6602-7.8398 17.5-17.5 17.5z"/>
  <path d="m122.5 332.5h-35c-9.6602 0-17.5-7.8398-17.5-17.5s7.8398-17.5 17.5-17.5h35c9.6602 0 17.5 7.8398 17.5 17.5s-7.8398 17.5-17.5 17.5z"/>
  <path d="m612.5 332.5h-35c-9.6602 0-17.5-7.8398-17.5-17.5s7.8398-17.5 17.5-17.5h35c9.6602 0 17.5 7.8398 17.5 17.5s-7.8398 17.5-17.5 17.5z"/>
  <path d="m189.14 171.64c-4.4805 0-8.9609-1.7148-12.391-5.1094l-24.746-24.781c-6.8242-6.8242-6.8242-17.922 0-24.746 6.8242-6.8242 17.922-6.8242 24.746 0l24.746 24.746c6.8242 6.8242 6.8242 17.922 0 24.746-3.3945 3.4297-7.875 5.1445-12.355 5.1445z"/>
  <path d="m510.86 171.64c-4.4805 0-8.9609-1.7148-12.391-5.1094-6.8242-6.8242-6.8242-17.922 0-24.746l24.746-24.746c6.8242-6.8242 17.922-6.8242 24.746 0 6.8242 6.8242 6.8242 17.922 0 24.746l-24.746 24.746c-3.3945 3.3945-7.875 5.1094-12.355 5.1094z"/>
 </g>
</svg>
