<?xml version="1.0" encoding="UTF-8"?>
<svg width="700pt" height="700pt" version="1.1" viewBox="0 0 700 700" xmlns="http://www.w3.org/2000/svg" xmlns:xlink="http://www.w3.org/1999/xlink">
 <defs>
  <symbol id="i" overflow="visible">
   <path d="m37.281-2.2344c-1.9297 1-3.9336 1.75-6.0156 2.25-2.0859 0.50781-4.2578 0.76562-6.5156 0.76562-6.7617 0-12.117-1.8828-16.062-5.6562-3.9492-3.7812-5.9219-8.8984-5.9219-15.359 0-6.4883 1.9727-11.617 5.9219-15.391 3.9453-3.7812 9.3008-5.6719 16.062-5.6719 2.2578 0 4.4297 0.25781 6.5156 0.76562 2.082 0.5 4.0859 1.25 6.0156 2.25v8.3906c-1.9375-1.3203-3.8516-2.2891-5.7344-2.9062-1.8867-0.61328-3.8711-0.92188-5.9531-0.92188-3.7305 0-6.668 1.1992-8.8125 3.5938-2.1367 2.3867-3.2031 5.6836-3.2031 9.8906 0 4.1797 1.0664 7.4648 3.2031 9.8594 2.1445 2.3867 5.082 3.5781 8.8125 3.5781 2.082 0 4.0664-0.30469 5.9531-0.92188 1.8828-0.61328 3.7969-1.582 5.7344-2.9062z"/>
  </symbol>
  <symbol id="h" overflow="visible">
   <path d="m27.281-22.141c-0.85547-0.39453-1.7031-0.6875-2.5469-0.875-0.84375-0.19531-1.6875-0.29688-2.5312-0.29688-2.5 0-4.4297 0.80469-5.7812 2.4062-1.3438 1.6055-2.0156 3.9023-2.0156 6.8906v14.016h-9.7344v-30.422h9.7344v5c1.25-2 2.6797-3.4531 4.2969-4.3594 1.625-0.91406 3.5664-1.375 5.8281-1.375 0.32031 0 0.67188 0.015625 1.0469 0.046875 0.38281 0.023437 0.94141 0.078125 1.6719 0.17188z"/>
  </symbol>
  <symbol id="a" overflow="visible">
   <path d="m35.047-15.297v2.7656h-22.734c0.22656 2.293 1.0508 4.0117 2.4688 5.1562 1.4141 1.1367 3.3906 1.7031 5.9219 1.7031 2.0391 0 4.1328-0.30078 6.2812-0.90625 2.1562-0.61328 4.3633-1.5352 6.625-2.7656v7.5c-2.3047 0.86719-4.6055 1.5156-6.9062 1.9531-2.3047 0.44531-4.6016 0.67188-6.8906 0.67188-5.5117 0-9.793-1.3945-12.844-4.1875-3.0547-2.8008-4.5781-6.7266-4.5781-11.781 0-4.957 1.5-8.8594 4.5-11.703s7.125-4.2656 12.375-4.2656c4.7812 0 8.6016 1.4453 11.469 4.3281 2.875 2.875 4.3125 6.7188 4.3125 11.531zm-10-3.2344c0-1.8438-0.54297-3.332-1.625-4.4688-1.0742-1.1328-2.4805-1.7031-4.2188-1.7031-1.8867 0-3.418 0.53125-4.5938 1.5938-1.1797 1.0625-1.9062 2.5898-2.1875 4.5781z"/>
  </symbol>
  <symbol id="c" overflow="visible">
   <path d="m18.312-13.688c-2.0312 0-3.5586 0.34375-4.5781 1.0312-1.0234 0.6875-1.5312 1.6992-1.5312 3.0312 0 1.2422 0.41016 2.2109 1.2344 2.9062 0.82031 0.69922 1.9688 1.0469 3.4375 1.0469 1.8203 0 3.3594-0.65625 4.6094-1.9688 1.25-1.3203 1.875-2.9688 1.875-4.9375v-1.1094zm14.859-3.6719v17.359h-9.8125v-4.5156c-1.3047 1.8555-2.7734 3.2031-4.4062 4.0469-1.625 0.83203-3.6055 1.25-5.9375 1.25-3.1562 0-5.7188-0.91406-7.6875-2.75-1.9609-1.8438-2.9375-4.2266-2.9375-7.1562 0-3.5703 1.2227-6.1914 3.6719-7.8594 2.457-1.6641 6.3125-2.5 11.562-2.5h5.7344v-0.75c0-1.5391-0.60938-2.6719-1.8281-3.3906-1.2109-0.71875-3.1016-1.0781-5.6719-1.0781-2.0859 0-4.0234 0.21094-5.8125 0.625-1.793 0.41797-3.4609 1.043-5 1.875v-7.4062c2.082-0.50781 4.1758-0.89453 6.2812-1.1562 2.1016-0.25781 4.2031-0.39062 6.2969-0.39062 5.4883 0 9.4531 1.0859 11.891 3.25 2.4375 2.1562 3.6562 5.6719 3.6562 10.547z"/>
  </symbol>
  <symbol id="b" overflow="visible">
   <path d="m15.297-39.062v8.6406h10.031v6.9531h-10.031v12.906c0 1.4062 0.28125 2.3594 0.84375 2.8594s1.6758 0.75 3.3438 0.75h5v6.9531h-8.3438c-3.8438 0-6.5703-0.80078-8.1719-2.4062-1.6055-1.6016-2.4062-4.3203-2.4062-8.1562v-12.906h-4.8281v-6.9531h4.8281v-8.6406z"/>
  </symbol>
  <symbol id="g" overflow="visible">
   <path d="m25.375-25.969v-16.312h9.7812v42.281h-9.7812v-4.4062c-1.3438 1.793-2.8242 3.1055-4.4375 3.9375-1.6055 0.83203-3.4688 1.25-5.5938 1.25-3.75 0-6.8281-1.4883-9.2344-4.4688-2.4062-2.9766-3.6094-6.8125-3.6094-11.5s1.2031-8.5195 3.6094-11.5c2.4062-2.9766 5.4844-4.4688 9.2344-4.4688 2.1016 0 3.9609 0.42188 5.5781 1.2656 1.625 0.83594 3.1094 2.1406 4.4531 3.9219zm-6.4062 19.688c2.082 0 3.6719-0.75781 4.7656-2.2812 1.0938-1.5195 1.6406-3.7266 1.6406-6.625 0-2.8945-0.54688-5.1016-1.6406-6.625-1.0938-1.5195-2.6836-2.2812-4.7656-2.2812-2.0742 0-3.6562 0.76172-4.75 2.2812-1.0938 1.5234-1.6406 3.7305-1.6406 6.625 0 2.8984 0.54688 5.1055 1.6406 6.625 1.0938 1.5234 2.6758 2.2812 4.75 2.2812z"/>
  </symbol>
  <symbol id="f" overflow="visible">
   <path d="m20.859-6.2812c2.082 0 3.6719-0.75781 4.7656-2.2812 1.1016-1.5195 1.6562-3.7266 1.6562-6.625 0-2.8945-0.55469-5.1016-1.6562-6.625-1.0938-1.5195-2.6836-2.2812-4.7656-2.2812-2.0859 0-3.6836 0.76562-4.7969 2.2969-1.1055 1.5312-1.6562 3.7344-1.6562 6.6094s0.55078 5.0781 1.6562 6.6094c1.1133 1.5312 2.7109 2.2969 4.7969 2.2969zm-6.4531-19.688c1.332-1.7812 2.8125-3.0859 4.4375-3.9219 1.6328-0.84375 3.5156-1.2656 5.6406-1.2656 3.75 0 6.8281 1.4922 9.2344 4.4688 2.4062 2.9805 3.6094 6.8125 3.6094 11.5s-1.2031 8.5234-3.6094 11.5c-2.4062 2.9805-5.4844 4.4688-9.2344 4.4688-2.125 0-4.0078-0.41797-5.6406-1.25-1.625-0.84375-3.1055-2.1562-4.4375-3.9375v4.4062h-9.7344v-42.281h9.7344z"/>
  </symbol>
  <symbol id="e" overflow="visible">
   <path d="m0.67188-30.422h9.7344l8.1719 20.641 6.9531-20.641h9.7344l-12.797 33.297c-1.2812 3.3828-2.7812 5.7539-4.5 7.1094-1.7109 1.3516-3.9688 2.0312-6.7812 2.0312h-5.625v-6.3906h3.0469c1.6445 0 2.8438-0.26562 3.5938-0.79688 0.75781-0.52344 1.3477-1.4609 1.7656-2.8125l0.26562-0.84375z"/>
  </symbol>
  <symbol id="d" overflow="visible">
   <path d="m5.1094-40.562h10.453v14.812l15.078-14.812h12.156l-19.547 19.203 21.547 21.359h-13.094l-16.141-15.969v15.969h-10.453z"/>
  </symbol>
 </defs>
 <g>
  <path d="m478.9 560c-49.781 0.99219-98.93-11.305-142.38-35.625-43.449-24.32-79.625-59.785-104.81-102.74-25.18-42.953-38.453-91.844-38.453-141.64s13.273-98.684 38.453-141.64c25.184-42.953 61.359-78.418 104.81-102.74 43.445-24.32 92.594-36.617 142.38-35.625 5.9023 0 11.562 2.3438 15.734 6.5195 4.1719 4.1719 6.5195 9.832 6.5195 15.734v515.49c0 5.9023-2.3477 11.562-6.5195 15.734-4.1719 4.1758-9.832 6.5195-15.734 6.5195zm-22.254-514.49c-58.352 5.5469-112.54 32.648-151.97 76.012-39.434 43.359-61.285 99.867-61.285 158.48s21.852 115.12 61.285 158.48c39.438 43.363 93.621 70.465 151.97 76.012z"/>
  <use x="198.84375" y="726.898438" xlink:href="#i"/>
  <use x="239.671875" y="726.898438" xlink:href="#h"/>
  <use x="267.109375" y="726.898438" xlink:href="#a"/>
  <use x="304.839844" y="726.898438" xlink:href="#c"/>
  <use x="342.382812" y="726.898438" xlink:href="#b"/>
  <use x="368.976562" y="726.898438" xlink:href="#a"/>
  <use x="406.707031" y="726.898438" xlink:href="#g"/>
  <use x="465.898438" y="726.898438" xlink:href="#f"/>
  <use x="505.722656" y="726.898438" xlink:href="#e"/>
  <use x="561.355469" y="726.898438" xlink:href="#d"/>
  <use x="604.464844" y="726.898438" xlink:href="#c"/>
  <use x="642.007812" y="726.898438" xlink:href="#b"/>
  <use x="668.601562" y="726.898438" xlink:href="#a"/>
 </g>
</svg>
